<svg width="31" height="45" viewBox="0 0 31 45" fill="none" xmlns="http://www.w3.org/2000/svg">
<path d="M15.252 0.533203C7.16504 0.533203 0.5 7.10938 0.5 15.2852C0.5 26.9268 13.6523 42.2119 14.2744 42.9229L15.252 44.0781L16.2295 42.9229C16.8516 42.2119 30.0039 26.9268 30.0039 15.2852C30.0039 7.10938 23.3389 0.533203 15.252 0.533203ZM15.252 39.9014C12.1416 36.0801 3.16602 24.1719 3.16602 15.2852C3.16602 8.62012 8.58691 3.19922 15.252 3.19922C21.917 3.19922 27.3379 8.62012 27.3379 15.2852C27.3379 24.1719 18.3623 36.0801 15.252 39.9014ZM15.252 7.64258C10.8086 7.64258 7.25391 11.1973 7.25391 15.6406C7.25391 20.084 10.8086 23.6387 15.252 23.6387C19.6953 23.6387 23.25 20.084 23.25 15.6406C23.25 11.1973 19.6953 7.64258 15.252 7.64258ZM15.252 20.9727C12.3193 20.9727 9.91992 18.5732 9.91992 15.6406C9.91992 12.708 12.3193 10.3086 15.252 10.3086C18.1846 10.3086 20.584 12.708 20.584 15.6406C20.584 18.5732 18.1846 20.9727 15.252 20.9727Z" fill="white"/>
</svg>
