<svg width="13" height="20" viewBox="0 0 13 20" fill="none" xmlns="http://www.w3.org/2000/svg">
<path d="M6.48438 0.414062C2.92969 0.414062 0 3.30469 0 6.89844C0 12.0156 5.78125 18.7344 6.05469 19.0469L6.48438 19.5547L6.91406 19.0469C7.1875 18.7344 12.9688 12.0156 12.9688 6.89844C12.9688 3.30469 10.0391 0.414062 6.48438 0.414062ZM6.48438 17.7188C5.11719 16.0391 1.17188 10.8047 1.17188 6.89844C1.17188 3.96875 3.55469 1.58594 6.48438 1.58594C9.41406 1.58594 11.7969 3.96875 11.7969 6.89844C11.7969 10.8047 7.85156 16.0391 6.48438 17.7188ZM6.48438 3.53906C4.53125 3.53906 2.96875 5.10156 2.96875 7.05469C2.96875 9.00781 4.53125 10.5703 6.48438 10.5703C8.4375 10.5703 10 9.00781 10 7.05469C10 5.10156 8.4375 3.53906 6.48438 3.53906ZM6.48438 9.39844C5.19531 9.39844 4.14062 8.34375 4.14062 7.05469C4.14062 5.76562 5.19531 4.71094 6.48438 4.71094C7.77344 4.71094 8.82812 5.76562 8.82812 7.05469C8.82812 8.34375 7.77344 9.39844 6.48438 9.39844Z" fill="#C5A47E"/>
</svg>
