<svg width="22" height="25" viewBox="0 0 22 25" fill="none" xmlns="http://www.w3.org/2000/svg">
<path d="M11.6719 21.4062C11.6719 21.9688 11.1562 22.4375 10.5938 22.4375C10.0312 22.4375 9.51562 21.9688 9.51562 21.4062C9.51562 20.7969 10.0312 20.3281 10.5938 20.3281C11.1562 20.3281 11.6719 20.7969 11.6719 21.4062ZM21.1875 3.03125V22.8125C21.1875 23.9844 20.2969 24.9219 19.2188 24.9219H1.96875C0.890625 24.9219 0 23.9844 0 22.8125V3.03125C0 1.85938 0.890625 0.921875 1.96875 0.921875H19.2188C20.2969 0.921875 21.1875 1.85938 21.1875 3.03125ZM19.7812 3.03125C19.7812 2.65625 19.5 2.32812 19.2188 2.32812H1.96875C1.6875 2.32812 1.40625 2.65625 1.40625 3.03125V22.8125C1.40625 23.1875 1.6875 23.5156 1.96875 23.5156H19.2188C19.5 23.5156 19.7812 23.1875 19.7812 22.8125V3.03125ZM2.8125 3.73438H18.375V19.2969H2.8125V3.73438ZM4.21875 17.8438H16.9688V5.14062H4.21875V17.8438Z" fill="#C5A47E"/>
</svg>
