<svg width="36" height="40" viewBox="0 0 36 40" fill="none" xmlns="http://www.w3.org/2000/svg">
<path d="M19.125 16.5C19.125 16.1022 19.3028 15.7206 19.6193 15.4393C19.9357 15.158 20.3649 15 20.8125 15H28.6875C29.1351 15 29.5643 15.158 29.8807 15.4393C30.1972 15.7206 30.375 16.1022 30.375 16.5C30.375 16.8978 30.1972 17.2794 29.8807 17.5607C29.5643 17.842 29.1351 18 28.6875 18H20.8125C20.3649 18 19.9357 17.842 19.6193 17.5607C19.3028 17.2794 19.125 16.8978 19.125 16.5ZM20.8125 26C20.3649 26 19.9357 26.158 19.6193 26.4393C19.3028 26.7206 19.125 27.1022 19.125 27.5C19.125 27.8978 19.3028 28.2794 19.6193 28.5607C19.9357 28.842 20.3649 29 20.8125 29H28.6875C29.1351 29 29.5643 28.842 29.8807 28.5607C30.1972 28.2794 30.375 27.8978 30.375 27.5C30.375 27.1022 30.1972 26.7206 29.8807 26.4393C29.5643 26.158 29.1351 26 28.6875 26H20.8125ZM15.255 15.56C15.4208 15.4227 15.5538 15.2571 15.646 15.0731C15.7382 14.8891 15.7878 14.6904 15.7918 14.489C15.7958 14.2876 15.7541 14.0876 15.6693 13.9008C15.5844 13.714 15.4581 13.5444 15.2978 13.4019C15.1376 13.2595 14.9467 13.1472 14.7366 13.0718C14.5265 12.9963 14.3014 12.9593 14.0748 12.9628C13.8482 12.9664 13.6248 13.0105 13.4178 13.0924C13.2108 13.1744 13.0245 13.2926 12.87 13.44L9.5625 16.38L8.505 15.44C8.18511 15.175 7.762 15.0308 7.32482 15.0376C6.88765 15.0445 6.47053 15.2019 6.16135 15.4768C5.85217 15.7516 5.67507 16.1224 5.66736 16.511C5.65964 16.8996 5.82192 17.2757 6.12 17.56L8.37 19.56C8.68641 19.8409 9.11531 19.9987 9.5625 19.9987C10.0097 19.9987 10.4386 19.8409 10.755 19.56L15.255 15.56ZM15.255 24.44C15.571 24.7213 15.7485 25.1025 15.7485 25.5C15.7485 25.8975 15.571 26.2787 15.255 26.56L10.755 30.56C10.4386 30.8409 10.0097 30.9987 9.5625 30.9987C9.11531 30.9987 8.68641 30.8409 8.37 30.56L6.12 28.56C5.9542 28.4227 5.82122 28.2571 5.72899 28.0731C5.63676 27.8891 5.58717 27.6905 5.58317 27.489C5.57917 27.2876 5.62085 27.0876 5.70572 26.9008C5.7906 26.714 5.91692 26.5444 6.07716 26.4019C6.23741 26.2595 6.42828 26.1472 6.6384 26.0718C6.84853 25.9963 7.07359 25.9593 7.30018 25.9628C7.52676 25.9664 7.75021 26.0105 7.95721 26.0924C8.16421 26.1744 8.35051 26.2926 8.505 26.44L9.5625 27.38L12.87 24.44C13.1864 24.1591 13.6153 24.0013 14.0625 24.0013C14.5097 24.0013 14.9386 24.1591 15.255 24.44ZM26.9865 4.168C26.8922 3.03505 26.3193 1.97572 25.3828 1.20264C24.4463 0.429556 23.2156 -6.65955e-05 21.9375 7.74282e-09H14.0625C12.8173 3.3449e-05 11.6157 0.408014 10.6876 1.14594C9.75947 1.88387 9.16986 2.89998 9.0315 4H5.0625C3.71984 4 2.43218 4.47411 1.48277 5.31802C0.533369 6.16193 0 7.30653 0 8.5V35.5C0 36.6935 0.533369 37.8381 1.48277 38.682C2.43218 39.5259 3.71984 40 5.0625 40H30.9375C31.6023 40 32.2606 39.8836 32.8748 39.6575C33.489 39.4313 34.0471 39.0998 34.5172 38.682C34.9873 38.2641 35.3602 37.768 35.6146 37.2221C35.8691 36.6761 36 36.091 36 35.5V8.5C36 7.90905 35.8691 7.32389 35.6146 6.77792C35.3602 6.23196 34.9873 5.73588 34.5172 5.31802C34.0471 4.90016 33.489 4.56869 32.8748 4.34254C32.2606 4.1164 31.6023 4 30.9375 4H26.9685L26.9865 4.168ZM26.9865 4.192L27 4.5C27 4.396 26.9933 4.294 26.9865 4.192ZM14.0625 9H21.9375C23.6925 9 25.2383 8.206 26.1473 7H30.9375C31.3851 7 31.8143 7.15804 32.1307 7.43934C32.4472 7.72064 32.625 8.10218 32.625 8.5V35.5C32.625 35.8978 32.4472 36.2794 32.1307 36.5607C31.8143 36.842 31.3851 37 30.9375 37H5.0625C4.61495 37 4.18572 36.842 3.86926 36.5607C3.55279 36.2794 3.375 35.8978 3.375 35.5V8.5C3.375 8.10218 3.55279 7.72064 3.86926 7.43934C4.18572 7.15804 4.61495 7 5.0625 7H9.85275C10.7617 8.206 12.3075 9 14.0625 9ZM14.0625 3H21.9375C22.3851 3 22.8143 3.15804 23.1307 3.43934C23.4472 3.72064 23.625 4.10218 23.625 4.5C23.625 4.89782 23.4472 5.27936 23.1307 5.56066C22.8143 5.84196 22.3851 6 21.9375 6H14.0625C13.6149 6 13.1857 5.84196 12.8693 5.56066C12.5528 5.27936 12.375 4.89782 12.375 4.5C12.375 4.10218 12.5528 3.72064 12.8693 3.43934C13.1857 3.15804 13.6149 3 14.0625 3Z" fill="#165DFF"/>
</svg>
