<svg width="40" height="40" viewBox="0 0 40 40" fill="none" xmlns="http://www.w3.org/2000/svg">
<path d="M15.716 35.42L20 28H6.14C8.23905 31.6303 11.6766 34.2939 15.716 35.42ZM4.504 24H13.072L6.14 11.998C4.73336 14.4299 3.99506 17.1906 4 20C4 21.38 4.176 22.72 4.504 24ZM8.79 8.584L13.07 16L20 4C15.8059 3.99453 11.7785 5.64142 8.79 8.584ZM24.284 4.58L20 12H33.86C31.7609 8.36974 28.3234 5.70613 24.284 4.58ZM35.496 16H26.928L33.858 28.002C35.2653 25.5703 36.0042 22.8096 36 20C36.0013 18.6507 35.832 17.3067 35.496 16ZM31.21 31.416L26.93 24L20 36C24.1941 36.0055 28.2215 34.3586 31.21 31.416ZM20 40C8.954 40 0 31.046 0 20C0 8.954 8.954 0 20 0C31.046 0 40 8.954 40 20C40 31.046 31.046 40 20 40ZM22.31 16H17.69L15.382 20L17.69 24H22.31L24.618 20L22.31 16Z" fill="#165DFF"/>
</svg>
