<svg width="42" height="43" viewBox="0 0 42 43" fill="none" xmlns="http://www.w3.org/2000/svg">
<path d="M21 41.7384C32.046 41.7384 41 32.6191 41 21.3692C41 10.1193 32.046 1 21 1C9.954 1 1 10.1193 1 21.3692C1 24.6283 1.752 27.7081 3.086 30.4396C3.442 31.1647 3.56 31.9938 3.354 32.778L2.164 37.3122C2.04658 37.7608 2.04702 38.2329 2.16528 38.6812C2.28354 39.1296 2.51546 39.5384 2.83778 39.8667C3.16011 40.195 3.56151 40.4312 4.00174 40.5516C4.44196 40.672 4.90555 40.6725 5.346 40.5529L9.798 39.3409C10.5708 39.1429 11.3881 39.2392 12.096 39.6119C14.8618 41.0145 17.9102 41.7426 21 41.7384Z" stroke="#165DFF" stroke-width="1.5"/>
<path d="M21 28.1584C23.21 28.1584 25 26.6388 25 24.7648C25 22.8909 23.21 21.3693 21 21.3693C18.79 21.3693 17 19.8498 17 17.9738C17 16.0998 18.79 14.5802 21 14.5802M21 28.1584C18.79 28.1584 17 26.6388 17 24.7648M21 28.1584V29.517M21 14.5802V13.2216M21 14.5802C23.21 14.5802 25 16.0998 25 17.9738" stroke="#165DFF" stroke-width="1.5" stroke-linecap="round"/>
</svg>
