<svg width="41" height="42" viewBox="0 0 41 42" fill="none" xmlns="http://www.w3.org/2000/svg">
<path d="M15.625 41H25.375H15.625ZM20.5 9.23529C22.9748 9.23383 25.3774 10.0403 27.3174 11.5236C29.2573 13.007 30.6206 15.08 31.1857 17.4059C31.7508 19.7317 31.4845 22.1737 30.43 24.335C29.3755 26.4962 27.5949 28.2498 25.3774 29.3106L25.375 31.5882C25.375 32.8363 24.8614 34.0333 23.9471 34.9158C23.0329 35.7983 21.7929 36.2941 20.5 36.2941C19.2071 36.2941 17.9671 35.7983 17.0529 34.9158C16.1386 34.0333 15.625 32.8363 15.625 31.5882V29.3106C13.4077 28.2498 11.6272 26.4965 10.5727 24.3355C9.5182 22.1745 9.25168 19.7327 9.81645 17.407C10.3812 15.0813 11.7441 13.0083 13.6836 11.5247C15.6232 10.0412 18.0254 9.23436 20.5 9.23529ZM20.5 3.35294V1V3.35294ZM32.6875 8.05882L35.125 5.70588L32.6875 8.05882ZM8.3125 8.05882L5.875 5.70588L8.3125 8.05882ZM32.6875 29.2353L35.125 31.5882L32.6875 29.2353ZM8.3125 29.2353L5.875 31.5882L8.3125 29.2353ZM3.4375 17.4706H1H3.4375ZM40 17.4706H37.5625H40Z" fill="#165DFF"/>
<path d="M15.625 41H25.375M20.5 3.35294V1M32.6875 8.05882L35.125 5.70588M8.3125 8.05882L5.875 5.70588M32.6875 29.2353L35.125 31.5882M8.3125 29.2353L5.875 31.5882M3.4375 17.4706H1M40 17.4706H37.5625M20.5 9.23529C22.9748 9.23383 25.3774 10.0403 27.3174 11.5236C29.2573 13.007 30.6206 15.08 31.1857 17.4059C31.7508 19.7317 31.4845 22.1737 30.43 24.335C29.3755 26.4962 27.5949 28.2498 25.3774 29.3106L25.375 31.5882C25.375 32.8363 24.8614 34.0333 23.9471 34.9158C23.0329 35.7983 21.7929 36.2941 20.5 36.2941C19.2071 36.2941 17.9671 35.7983 17.0529 34.9158C16.1386 34.0333 15.625 32.8363 15.625 31.5882V29.3106C13.4077 28.2498 11.6272 26.4965 10.5727 24.3355C9.5182 22.1745 9.25168 19.7327 9.81645 17.407C10.3812 15.0813 11.7441 13.0083 13.6836 11.5247C15.6232 10.0412 18.0254 9.23436 20.5 9.23529Z" stroke="black" stroke-linecap="round" stroke-linejoin="round"/>
</svg>
